# xmcd
#
# Track frame offsets: 
#        150
#        20872
#        39384
#        51685
#        69057
#        79438
#        99286
#        121223
#        140652
#        155670
#
# Disc length: 2342 seconds
#
# Revision: 2
# Processed by: cddbd v1.5.2PL0 Copyright (c) Steve Scherf et al.
# Submitted via: ExactAudioCopy v1.0b2
#
DISCID=8a09240a
DTITLE=Blue Shaddy - Bury my Ghost
DYEAR=2008
DGENRE=Blues
TTITLE0=Bury My Ghost
TTITLE1=West Australian Sun
TTITLE2=Wagtail
TTITLE3=Mother Earth
TTITLE4=Moonshine
TTITLE5=Out of Place
TTITLE6=Freedom
TTITLE7=Hell's Fire
TTITLE8=Duke of Orleans
TTITLE9=Wilderbeast
EXTD=
EXTT0=
EXTT1=
EXTT2=
EXTT3=
EXTT4=
EXTT5=
EXTT6=
EXTT7=
EXTT8=
EXTT9=
PLAYORDER=
